<?xml version="1.0" encoding="UTF-8" standalone="no"?>
<svg
   xmlns:dc="http://purl.org/dc/elements/1.1/"
   xmlns:cc="http://creativecommons.org/ns#"
   xmlns:rdf="http://www.w3.org/1999/02/22-rdf-syntax-ns#"
   xmlns:svg="http://www.w3.org/2000/svg"
   xmlns="http://www.w3.org/2000/svg"
   id="svg8"
   version="1.1"
   viewBox="0 0 500 500"
   height="500mm"
   width="500mm">
  <defs
     id="defs2" />
  <metadata
     id="metadata5">
    <rdf:RDF>
      <cc:Work
         rdf:about="">
        <dc:format>image/svg+xml</dc:format>
        <dc:type
           rdf:resource="http://purl.org/dc/dcmitype/StillImage" />
        <dc:title></dc:title>
      </cc:Work>
    </rdf:RDF>
  </metadata>
  <g
     id="layer2"
     style="display:inline">
    <ellipse
       style="fill:none;stroke:#4eff79;stroke-width:15.0000228;stroke-linejoin:round;stroke-miterlimit:4;stroke-dasharray:none;stroke-opacity:1"
       id="path835"
       cx="249.99998"
       cy="250"
       rx="45"
       ry="45.000011" />
    <path
       style="fill:none;fill-opacity:1;stroke:#4eff79;stroke-width:30.09794215;stroke-linecap:butt;stroke-linejoin:round;stroke-miterlimit:4;stroke-dasharray:none;stroke-opacity:1"
       id="path851"
       d="m 315,345 c -26.58333,19.19907 -32.44463,-6.64391 -65.23592,-6.73682 -32.7913,-0.0929 -38.79896,25.71643 -65.27306,6.36702 -26.4741,-19.34941 -3.70721,-32.90976 -13.75191,-64.12484 -10.0447,-31.21509 -36.44732,-28.95318 -26.22588,-60.11085 10.22143,-31.15766 30.15344,-13.69544 56.73677,-32.89451 26.58333,-19.19907 16.27327,-43.61048 49.06457,-43.51757 32.79129,0.0929 22.34306,24.44551 48.81716,43.79492 26.47411,19.34941 46.50476,2.00042 56.54946,33.21551 10.0447,31.21508 -16.34467,28.80359 -26.56611,59.96125 C 318.89365,312.11178 341.58333,325.80093 315,345 Z"
       transform="matrix(0.99674125,0,0,0.99673597,0.752976,-3.5122374)" />
    <ellipse
       style="fill:none;stroke:#4eff79;stroke-width:25;stroke-linejoin:round;stroke-miterlimit:4;stroke-dasharray:none;stroke-opacity:1"
       id="path832-3"
       cx="250"
       cy="249.99998"
       rx="237.5"
       ry="237.49998" />
  </g>
</svg>
