<?xml version="1.0" encoding="UTF-8" standalone="no"?>
<svg
   xmlns:dc="http://purl.org/dc/elements/1.1/"
   xmlns:cc="http://creativecommons.org/ns#"
   xmlns:rdf="http://www.w3.org/1999/02/22-rdf-syntax-ns#"
   xmlns:svg="http://www.w3.org/2000/svg"
   xmlns="http://www.w3.org/2000/svg"
   id="svg8"
   version="1.1"
   viewBox="0 0 500 500"
   height="500mm"
   width="500mm">
  <defs
     id="defs2" />
  <metadata
     id="metadata5">
    <rdf:RDF>
      <cc:Work
         rdf:about="">
        <dc:format>image/svg+xml</dc:format>
        <dc:type
           rdf:resource="http://purl.org/dc/dcmitype/StillImage" />
        <dc:title></dc:title>
      </cc:Work>
    </rdf:RDF>
  </metadata>
  <g
     id="layer5"
     style="display:inline">
    <path
       id="path951"
       style="color:#000000;font-style:normal;font-variant:normal;font-weight:normal;font-stretch:normal;font-size:medium;line-height:normal;font-family:sans-serif;font-variant-ligatures:normal;font-variant-position:normal;font-variant-caps:normal;font-variant-numeric:normal;font-variant-alternates:normal;font-variant-east-asian:normal;font-feature-settings:normal;font-variation-settings:normal;text-indent:0;text-align:start;text-decoration:none;text-decoration-line:none;text-decoration-style:solid;text-decoration-color:#000000;letter-spacing:normal;word-spacing:normal;text-transform:none;writing-mode:lr-tb;direction:ltr;text-orientation:mixed;dominant-baseline:auto;baseline-shift:baseline;text-anchor:start;white-space:normal;shape-padding:0;shape-margin:0;inline-size:0;clip-rule:nonzero;display:inline;overflow:visible;visibility:visible;opacity:1;isolation:auto;mix-blend-mode:normal;color-interpolation:sRGB;color-interpolation-filters:linearRGB;solid-color:#000000;solid-opacity:1;vector-effect:none;fill:#7fd5ff;fill-opacity:1;fill-rule:nonzero;stroke:#7fd5ff;stroke-width:10.00019159;stroke-linecap:round;stroke-linejoin:round;stroke-miterlimit:4;stroke-dasharray:none;stroke-dashoffset:0;stroke-opacity:1;color-rendering:auto;image-rendering:auto;shape-rendering:auto;text-rendering:auto;enable-background:accumulate;stop-color:#000000;stop-opacity:1"
       d="m 250.00025,112.50011 a 2.4999022,2.499995 0 0 0 -2.50001,2.5001 v 35.14153 L 216.4542,127.9648 a 2.4999022,2.499995 0 0 0 -1.49805,-0.46458 2.4999022,2.499995 0 0 0 -1.98998,1.04645 2.4999022,2.499995 0 0 0 0.58185,3.48868 l 33.95222,24.25227 v 48.51125 l -45.93605,-36.75022 a 2.4999022,2.499995 0 0 0 -1.60346,-0.5488 2.4999022,2.499995 0 0 0 -1.91196,0.93741 2.4999022,2.499995 0 0 0 0.39066,3.51607 l 49.06081,39.2498 v 38.79711 a 2.4999022,2.499995 0 0 0 2.50001,2.49959 2.4999022,2.499995 0 0 0 2.4995,-2.49959 v -38.79711 l 49.06083,-39.2498 a 2.4999022,2.499995 0 0 0 0.39064,-3.51607 2.4999022,2.499995 0 0 0 -3.51542,-0.39016 l -45.93605,36.75177 v -48.51125 l 33.95223,-24.25227 a 2.4999022,2.499995 0 0 0 0.58185,-3.48868 2.4999022,2.499995 0 0 0 -3.48803,-0.58187 l -31.04605,22.17746 v -35.14205 a 2.4999022,2.499995 0 0 0 -2.4995,-2.5001 z" />
    <path
       id="path969"
       style="color:#000000;font-style:normal;font-variant:normal;font-weight:normal;font-stretch:normal;font-size:medium;line-height:normal;font-family:sans-serif;font-variant-ligatures:normal;font-variant-position:normal;font-variant-caps:normal;font-variant-numeric:normal;font-variant-alternates:normal;font-variant-east-asian:normal;font-feature-settings:normal;font-variation-settings:normal;text-indent:0;text-align:start;text-decoration:none;text-decoration-line:none;text-decoration-style:solid;text-decoration-color:#000000;letter-spacing:normal;word-spacing:normal;text-transform:none;writing-mode:lr-tb;direction:ltr;text-orientation:mixed;dominant-baseline:auto;baseline-shift:baseline;text-anchor:start;white-space:normal;shape-padding:0;shape-margin:0;inline-size:0;clip-rule:nonzero;display:inline;overflow:visible;visibility:visible;opacity:1;isolation:auto;mix-blend-mode:normal;color-interpolation:sRGB;color-interpolation-filters:linearRGB;solid-color:#000000;solid-opacity:1;vector-effect:none;fill:#7fd5ff;fill-opacity:1;fill-rule:nonzero;stroke:#7fd5ff;stroke-width:10.00019159;stroke-linecap:round;stroke-linejoin:round;stroke-miterlimit:4;stroke-dasharray:none;stroke-dashoffset:0;stroke-opacity:1;color-rendering:auto;image-rendering:auto;shape-rendering:auto;text-rendering:auto;enable-background:accumulate;stop-color:#000000;stop-opacity:1"
       d="m 250.00025,387.49972 a 2.4999022,2.499995 0 0 1 -2.50001,-2.5001 v -35.14153 l -31.04604,22.17694 a 2.4999022,2.499995 0 0 1 -1.49805,0.46458 2.4999022,2.499995 0 0 1 -1.98998,-1.04645 2.4999022,2.499995 0 0 1 0.58185,-3.48868 l 33.95222,-24.25227 v -48.51125 l -45.93605,36.75022 a 2.4999022,2.499995 0 0 1 -1.60346,0.5488 2.4999022,2.499995 0 0 1 -1.91196,-0.93741 2.4999022,2.499995 0 0 1 0.39066,-3.51607 l 49.06081,-39.2498 v -38.79711 a 2.4999022,2.499995 0 0 1 2.50001,-2.49959 2.4999022,2.499995 0 0 1 2.4995,2.49959 v 38.79711 l 49.06083,39.2498 a 2.4999022,2.499995 0 0 1 0.39064,3.51607 2.4999022,2.499995 0 0 1 -3.51542,0.39016 l -45.93605,-36.75177 v 48.51125 l 33.95223,24.25227 a 2.4999022,2.499995 0 0 1 0.58185,3.48868 2.4999022,2.499995 0 0 1 -3.48803,0.58187 l -31.04605,-22.17746 v 35.14205 a 2.4999022,2.499995 0 0 1 -2.4995,2.5001 z" />
    <path
       id="path971"
       style="color:#000000;font-style:normal;font-variant:normal;font-weight:normal;font-stretch:normal;font-size:medium;line-height:normal;font-family:sans-serif;font-variant-ligatures:normal;font-variant-position:normal;font-variant-caps:normal;font-variant-numeric:normal;font-variant-alternates:normal;font-variant-east-asian:normal;font-feature-settings:normal;font-variation-settings:normal;text-indent:0;text-align:start;text-decoration:none;text-decoration-line:none;text-decoration-style:solid;text-decoration-color:#000000;letter-spacing:normal;word-spacing:normal;text-transform:none;writing-mode:lr-tb;direction:ltr;text-orientation:mixed;dominant-baseline:auto;baseline-shift:baseline;text-anchor:start;white-space:normal;shape-padding:0;shape-margin:0;inline-size:0;clip-rule:nonzero;display:inline;overflow:visible;visibility:visible;opacity:1;isolation:auto;mix-blend-mode:normal;color-interpolation:sRGB;color-interpolation-filters:linearRGB;solid-color:#000000;solid-opacity:1;vector-effect:none;fill:#7fd5ff;fill-opacity:1;fill-rule:nonzero;stroke:#7fd5ff;stroke-width:10.00019159;stroke-linecap:round;stroke-linejoin:round;stroke-miterlimit:4;stroke-dasharray:none;stroke-dashoffset:0;stroke-opacity:1;color-rendering:auto;image-rendering:auto;shape-rendering:auto;text-rendering:auto;enable-background:accumulate;stop-color:#000000;stop-opacity:1"
       d="m 388.70272,250.00025 a 2.499995,2.4999022 0 0 0 -2.5001,-2.50001 h -35.14153 l 22.17694,-31.04604 a 2.499995,2.4999022 0 0 0 0.46458,-1.49805 2.499995,2.4999022 0 0 0 -1.04645,-1.98998 2.499995,2.4999022 0 0 0 -3.48868,0.58185 l -24.25227,33.95222 h -48.51125 l 36.75022,-45.93605 a 2.499995,2.4999022 0 0 0 0.5488,-1.60346 2.499995,2.4999022 0 0 0 -0.93741,-1.91196 2.499995,2.4999022 0 0 0 -3.51607,0.39066 l -39.2498,49.06081 h -38.79711 a 2.499995,2.4999022 0 0 0 -2.49959,2.50001 2.499995,2.4999022 0 0 0 2.49959,2.4995 h 38.79711 l 39.2498,49.06083 a 2.499995,2.4999022 0 0 0 3.51607,0.39064 2.499995,2.4999022 0 0 0 0.39016,-3.51542 l -36.75177,-45.93605 h 48.51125 l 24.25227,33.95223 a 2.499995,2.4999022 0 0 0 3.48868,0.58185 2.499995,2.4999022 0 0 0 0.58187,-3.48803 l -22.17746,-31.04605 h 35.14205 a 2.499995,2.4999022 0 0 0 2.5001,-2.4995 z" />
    <path
       id="path973"
       style="color:#000000;font-style:normal;font-variant:normal;font-weight:normal;font-stretch:normal;font-size:medium;line-height:normal;font-family:sans-serif;font-variant-ligatures:normal;font-variant-position:normal;font-variant-caps:normal;font-variant-numeric:normal;font-variant-alternates:normal;font-variant-east-asian:normal;font-feature-settings:normal;font-variation-settings:normal;text-indent:0;text-align:start;text-decoration:none;text-decoration-line:none;text-decoration-style:solid;text-decoration-color:#000000;letter-spacing:normal;word-spacing:normal;text-transform:none;writing-mode:lr-tb;direction:ltr;text-orientation:mixed;dominant-baseline:auto;baseline-shift:baseline;text-anchor:start;white-space:normal;shape-padding:0;shape-margin:0;inline-size:0;clip-rule:nonzero;display:inline;overflow:visible;visibility:visible;opacity:1;isolation:auto;mix-blend-mode:normal;color-interpolation:sRGB;color-interpolation-filters:linearRGB;solid-color:#000000;solid-opacity:1;vector-effect:none;fill:#7fd5ff;fill-opacity:1;fill-rule:nonzero;stroke:#7fd5ff;stroke-width:10.00019159;stroke-linecap:round;stroke-linejoin:round;stroke-miterlimit:4;stroke-dasharray:none;stroke-dashoffset:0;stroke-opacity:1;color-rendering:auto;image-rendering:auto;shape-rendering:auto;text-rendering:auto;enable-background:accumulate;stop-color:#000000;stop-opacity:1"
       d="m 111.297,250.00025 a 2.499995,2.4999022 0 0 1 2.5001,-2.50001 h 35.14153 L 126.76169,216.4542 a 2.499995,2.4999022 0 0 1 -0.46458,-1.49805 2.499995,2.4999022 0 0 1 1.04645,-1.98998 2.499995,2.4999022 0 0 1 3.48868,0.58185 l 24.25227,33.95222 h 48.51125 l -36.75022,-45.93605 a 2.499995,2.4999022 0 0 1 -0.5488,-1.60346 2.499995,2.4999022 0 0 1 0.93741,-1.91196 2.499995,2.4999022 0 0 1 3.51607,0.39066 l 39.2498,49.06081 h 38.79711 a 2.499995,2.4999022 0 0 1 2.49959,2.50001 2.499995,2.4999022 0 0 1 -2.49959,2.4995 h -38.79711 l -39.2498,49.06083 a 2.499995,2.4999022 0 0 1 -3.51607,0.39064 2.499995,2.4999022 0 0 1 -0.39016,-3.51542 l 36.75177,-45.93605 h -48.51125 l -24.25227,33.95223 a 2.499995,2.4999022 0 0 1 -3.48868,0.58185 2.499995,2.4999022 0 0 1 -0.58187,-3.48803 l 22.17746,-31.04605 H 113.7971 a 2.499995,2.4999022 0 0 1 -2.5001,-2.4995 z" />
    <path
       style="fill:none;fill-opacity:1;stroke:#7fd5ff;stroke-width:10.00019159;stroke-linecap:round;stroke-linejoin:round;stroke-miterlimit:4;stroke-dasharray:none;stroke-opacity:1"
       d="M 224.99999,275 275,224.99999"
       id="path975" />
    <path
       style="fill:none;fill-opacity:1;stroke:#7fd5ff;stroke-width:10.00019159;stroke-linecap:round;stroke-linejoin:round;stroke-miterlimit:4;stroke-dasharray:none;stroke-opacity:1"
       d="M 275,275 224.99999,224.99999"
       id="path977" />
    <ellipse
       style="fill:none;stroke:#7fd5ff;stroke-width:25;stroke-linejoin:round;stroke-miterlimit:4;stroke-dasharray:none;stroke-opacity:1"
       id="path832-5"
       cx="250"
       cy="249.99998"
       rx="237.5"
       ry="237.49998" />
    <ellipse
       style="fill:none;fill-opacity:1;stroke:#7fd5ff;stroke-width:4.98686663;stroke-linecap:round;stroke-linejoin:round;stroke-miterlimit:4;stroke-dasharray:none;stroke-opacity:1"
       id="path921"
       cx="250.00003"
       cy="250.00009"
       rx="24.924936"
       ry="24.925007" />
  </g>
</svg>
