<svg xmlns="http://www.w3.org/2000/svg" viewBox="0 0 1033.67 319.8"><defs><style>.cls-1{fill:#fc6;}.cls-1,.cls-2,.cls-3{stroke:#000;stroke-miterlimit:10;stroke-width:0.75px;}.cls-2{fill:#4d4d4d;}.cls-3{fill:#e6e6e6;}</style></defs><g id="Layer_2" data-name="Layer 2"><path class="cls-1" d="M641.11,482.14H625.64l-8.5-23.61H580.81l-8.08,23.61H557.26l34.22-90.76h15.64Zm-27.89-35.27-12.66-35.8a38.9,38.9,0,0,1-1.41-6.86h-.41a34.53,34.53,0,0,1-1.46,6.74l-12.6,35.92Z" transform="translate(-184.14 -202.04)"/><path class="cls-1" d="M732.64,482.14H716.93l-43.42-66.91a40.29,40.29,0,0,1-3.51-6.39h-.35a108.25,108.25,0,0,1,.52,13.24v60.06H656.52V391.38h16.64L715.29,457q3,4.68,4,6.5h.29a94.41,94.41,0,0,1-.65-13V391.38h13.72Z" transform="translate(-184.14 -202.04)"/><path class="cls-1" d="M828.33,476q-13.61,7.68-31.35,7.68-20.34,0-32.52-12.37T752.27,438q0-21.15,13.51-34.66t34.77-13.5c9.77,0,13.13,1.5,20.08,4.51l5,14.41q-10.73-6.61-26-6.62-14.35,0-23.49,9.67T767,437.2q0,16.17,8.4,25.23t22.77,9.05q9.49,0,16-3.52V445.23H797.93l-3-12h33.4Z" transform="translate(-184.14 -202.04)"/><path class="cls-1" d="M1019.87,520.35l-21.06-38.48s12.3,1.8,13.21-37.44c.35-15.27-13-41.56-13-41.56l2-11.49h18.07Z" transform="translate(-184.14 -202.04)"/><path class="cls-1" d="M1121.75,482.14H1106l-43.41-66.91a39.66,39.66,0,0,1-3.52-6.39h-.35a107.61,107.61,0,0,1,.53,13.24v79.16l-13.66,17.88V391.38h16.65L1104.4,457c2,3.12,3.32,5.29,4,6.5h.29a94.78,94.78,0,0,1-.64-13V391.38h13.71Z" transform="translate(-184.14 -202.04)"/><path class="cls-1" d="M1217.44,476q-13.59,7.68-31.35,7.68-20.34,0-32.52-12.37T1141.38,438q0-21.15,13.51-34.66t34.77-13.5c9.77,0,13.13,1.5,20.08,4.51l5,14.41q-10.73-6.61-26-6.62-14.37,0-23.5,9.67t-9.14,25.37q0,16.17,8.41,25.23t22.76,9.05q9.5,0,16-3.52V445.23H1187l-3-12h33.4Z" transform="translate(-184.14 -202.04)"/></g><g id="Layer_1" data-name="Layer 1"><path class="cls-2" d="M309.94,435.61s-.32,36.29,0,37.46,9.5,2.36,9.5,2.36.24-26.39-3.53-34.4-1.29-11.32-1.29-11.32a149.43,149.43,0,0,1,4.83,15.56c1.17,5.65,1.64,30.16,1.64,30.16s-.81,2.09,5.19,0c8.26-2.88,19.09-12.49,19.09-12.49s-2.05-10.6-3.7-17.67-21.29-29.93-28.83-35.12-8.72-10.7-16.49-11.83-12.73-2.45-20.74,4.34-14.85,33.58-15.21,40.23c-.5,9.08-2.87,18.19,2.2,24.38,14.27,17.44,15.6-9.51,15.6-9.51s-3.5-25.83-.68-31.11c2.4-4.5,11.87-12.89,18-13.11,5.6-.21,10.89,2.29,12.3,6.53S309.94,435.61,309.94,435.61Z" transform="translate(-184.14 -202.04)"/><path class="cls-2" d="M256.17,452S245,429.24,245.88,424.41c1.58-9,6.31-23.68,16.72-31s8.53-8,13.95-8.48a56.26,56.26,0,0,0,8-1.13l8-10.54,36.69,52.84S303.46,392,291.91,392.66s-20.28,9.48-25.93,18.67S256.17,452,256.17,452Z" transform="translate(-184.14 -202.04)"/><path class="cls-1" d="M413.41,207.11l14.82,72S407,262.58,399.29,256.19c-11-9.13-20.35-16.06-32.81-22.85a84.85,84.85,0,0,0-41.21-10.18,88.53,88.53,0,0,0-48.65,14.21q-22.22,14.2-36,41.63t-13.8,61.72q0,35.26,14,62.89t37.88,42.52A95.51,95.51,0,0,0,330.16,461q26,0,53.25-14.93c18.14-9.95,31.3-22.7,44.61-40.65,0,0,10-20.05,22.45-24,13.78-4.35,30.23-8.17,30.23-8.17s-12.45,1.36-32.58,33.76A253.46,253.46,0,0,1,420,445.55c-13.24,15.07-30.34,23.37-46.4,29.76S340,484.9,320.77,484.9q-63.63,0-103.37-47.18-32.88-39.15-32.89-93.18,0-39.75,18.21-72a137.09,137.09,0,0,1,50.21-51.19,132.94,132.94,0,0,1,69-19c13.18,0,25.5,1,44.6,10.44C411,234.9,413.41,207.11,413.41,207.11Z" transform="translate(-184.14 -202.04)"/><path class="cls-3" d="M339.38,361.38s-3.34,30.72,0,33.73,26.17,18.61,52.73,18.61c5.76,0,15.75-2.78,16.87-4.45s4.74-2.57,7.38-6,9.1-4,10.33-4.56,2.89-5.05-4.91-4.47-10,1.68-18.37,6.14-20.6-6.14-20.6-6.14l-15-12.24s1.67-12.24.56-14.47.63-6.32.88-12.9c.23-6-4.22-12.71-15.24-8.44C336.7,352.87,339.38,361.38,339.38,361.38Z" transform="translate(-184.14 -202.04)"/><path class="cls-3" d="M375.05,416.22s-9,2.69-11.23,6.28l-2.24,3.6s-6.74-13.92-9.88-16.17-10.33-6.68-10.33-6.68Z" transform="translate(-184.14 -202.04)"/><path class="cls-3" d="M425.8,387.86c-1,.18-2.5,1.54-2,2.53s2.64,1.23,3.94,2.42,2.53,4.33,1.54,5.88-9,2.78-10.95,5.25-5.63,3.72-7.12,5.2-1,2.73-1,2.73-17.32,3.21-22.76,6.43-12.4,7.8-12.4,7.8a53.11,53.11,0,0,1,4.91-4.45,54.41,54.41,0,0,1,6-3.48s-12.27-1.74-17.46,2.22-5.81,7.31-5.81,7.31.5,9.41,4.46,12.62,8.9,7.67,8.9,7.67a32.24,32.24,0,0,0,14.11-4.2c6.43-4,30.23-30,30.23-30s4.94-6.27,10.67-9.32,6.61-6.51,6.61-7.5c0-7.6-1.45-12.06-2.47-13.12s-3.36-.94-3.72,0,.75,3,1.49,5.2a10.5,10.5,0,0,1,.25,4.7,33.1,33.1,0,0,0-2.44-3.41C430.05,389.65,426.77,387.69,425.8,387.86Z" transform="translate(-184.14 -202.04)"/><path class="cls-3" d="M370.13,380.93s12.16,10.31,16.08,12.62,6.67,5.33,12.37,5.15,8.91-2.67,13.86-4.16a62.19,62.19,0,0,1,10.64-2s-2.84-2-1.3-4a5.53,5.53,0,0,1,4.51-2.43c1.44-.07,4,1.94,4,1.94a16.59,16.59,0,0,1,0-4.65c.39-1.8,1.41-1.78,2.4-2,2.1-.47,3-.13,4.23,1.25a7.07,7.07,0,0,1,.83,2.69s9.36-5.94,11.59-9.41,7.92-9.4,6.93-22.27-5.69-23.26-12.62-28.21-14.85-5.44-17.82-5.69-3.71-3-10.39-2S393.58,326.7,390,329.49s-10,9.38-10.7,12.34.25,7.92.25,7.92-7.43,6.66-7.92,8.41a44.76,44.76,0,0,0-1.48,10.65C369.88,374.5,370.13,380.93,370.13,380.93Z" transform="translate(-184.14 -202.04)"/><path class="cls-3" d="M283.27,460.37s8.42,26.72,9.65,30.93a93.1,93.1,0,0,1,1.73,9.4s13.36.74,16.09.25,14.84,1.48,19.79-1,5.45,0,5.69-1.48,4.11,1.23,5.15-2,0-4,0-4,3,2,3.27-1.74l.24-3.71s1.49.5,2.23-2.22,0-3.19,0-3.19.27-.27-1-3c-1.48-3.22-8.16-.5-9.9,1.48s-20.07,1.68-21.39,1.49c-5.08-.74-2.86-30.93-2.86-30.93a128.45,128.45,0,0,1-.24-15.84c.23-5.58-1.24-12.62-2.48-14.6s-8.41-4.7-11.63-3.22-12.37,6.68-14.35,11.38-2.48,16.58-2.48,21.29S283.27,460.37,283.27,460.37Z" transform="translate(-184.14 -202.04)"/><path class="cls-3" d="M283,518s-14.85-15-14.35-16.78-2.72-5.24,1.48-7.71,17.32-11.39,17.32-11.39,4.73,7.43,4.22,10.64,1.33,15.84,0,20.79-4.26,7.92-6,6.93" transform="translate(-184.14 -202.04)"/><path class="cls-3" d="M327.31,365.59l10.58-7.43s-1.42,10.4-1.17,14.61-.25,13.85-.25,13.85Z" transform="translate(-184.14 -202.04)"/><path class="cls-2" d="M305.13,370.55h16.49l10.71,27.23s.85,7.06,3.09,7.72,10.25,4.07,11.19,9.07,7.31,16,7.75,18,4,6.59,6.49,8.35,12.74,5,14.2,18.06a40.24,40.24,0,0,1-7.83,28.87s-3-23.82-6.52-27.7c-4-4.41-13.26-4.3-13.26-4.3l-26-49.66-21.08-32.3,5.25-1.1,19.12,31.87Z" transform="translate(-184.14 -202.04)"/><path class="cls-1" d="M557.65,421.32s-5.66,6.82-12.85,10a9.46,9.46,0,0,1-2.84.75V391.38H527.9v37.86A56.24,56.24,0,0,0,516,426.62c-11-.9-14.27-2.69-31.73,3V391.38H470.18v48.84c-.85.87-1.71,1.77-2.57,2.68-6.88,7.28-10.79,12.09-10.79,12.09a59.9,59.9,0,0,1,13.36-6.58v33.73h14.06V444.82a78.07,78.07,0,0,1,29,.95,41.59,41.59,0,0,0,14.69.73v35.64H542v-41C553.28,433.64,557.65,421.32,557.65,421.32Z" transform="translate(-184.14 -202.04)"/><path class="cls-1" d="M841.53,447.8v0S841.51,447.82,841.53,447.8Z" transform="translate(-184.14 -202.04)"/><path class="cls-1" d="M871.32,444.2c30.7,7.17,37.34-18,37.34-18s-1.37,1.67-8,4.66c-6.51,2.92-13.9-1.42-24.54-2.28-4.31-.36-7.93-.52-11.07-.48V403.45h34.16V391.38H851v42.27a61.3,61.3,0,0,0-9.41,14.12c.27-.35,3-3.14,9.41-4.49v38.86h50.27V470.07H865V443C867,443.3,869.07,443.67,871.32,444.2Z" transform="translate(-184.14 -202.04)"/><path class="cls-1" d="M964.44,471.44l-13.4-.61c-3-.51-7.17-1.84-9.62-5.36-4.15-6,6.14-7.58,7.7-23.21a25.75,25.75,0,0,0,.2-5s-.82.49-3.21,1.6-6.62.86-6.62.86a16.28,16.28,0,0,1,5.23-3.76,9.67,9.67,0,0,0,4.17-3s.83-3.64-7.47-19-10.92-27.2-6.16-40.13c1.73-4.7,2.52-12.89,2.52-12.89l-1.33-82.52H918.22l1.26,112.39-.05-.14,1.08,91.41H972Z" transform="translate(-184.14 -202.04)"/></g></svg>